<svg width="572" height="572" viewBox="0 0 572 572" fill="none" xmlns="http://www.w3.org/2000/svg">
<path fill-rule="evenodd" clip-rule="evenodd" d="M339.428 150.106C344.418 148.763 350.74 148.197 355.121 152.368C359.49 156.527 359.705 163.292 358.174 170.62C355.101 185.321 343.323 210.214 318.522 249.944L316.08 253.835L315.787 254.255C314.715 255.625 313.035 256.303 311.379 256.147C314.529 264.42 317.99 273.73 321.828 284.212C332.634 313.719 328.045 341.313 315.01 361.944C325.48 362.711 336.235 360.503 346.363 354.643C370.172 340.867 391.862 325.076 407.027 311.1C414.629 304.095 420.436 297.689 424.061 292.342C425.873 289.668 427.033 287.413 427.641 285.606C428.259 283.768 428.182 282.771 428.061 282.344C426.542 277.03 423.541 274.944 420.078 274.567C416.361 274.163 411.099 275.641 405.154 279.993L403.957 280.903L403.539 281.198C401.398 282.554 398.535 282.095 396.936 280.059C395.337 278.024 395.569 275.135 397.393 273.376L397.779 273.04L399.205 271.956C406.376 266.7 414.095 263.858 421.158 264.626C429.195 265.499 435.194 270.911 437.676 279.596C438.554 282.67 438.103 285.867 437.119 288.794C436.124 291.751 434.451 294.836 432.338 297.954C428.108 304.193 421.687 311.19 413.805 318.454C398.003 333.016 375.691 349.226 351.371 363.298C337.462 371.345 322.45 373.569 308.217 371.19C306.516 373.193 304.733 375.108 302.865 376.919C281.323 397.803 248.92 405.604 220.629 389.235C196.309 375.163 173.997 358.953 158.195 344.391C150.313 337.128 143.892 330.13 139.662 323.891C137.549 320.774 135.876 317.689 134.881 314.731C133.897 311.805 133.446 308.607 134.324 305.534C136.806 296.849 142.805 291.437 150.842 290.563C157.906 289.796 165.624 292.637 172.795 297.893L174.221 298.977L174.607 299.313C176.431 301.072 176.663 303.961 175.064 305.997C173.465 308.032 170.602 308.492 168.461 307.135L168.043 306.841L166.846 305.93C160.901 301.579 155.639 300.101 151.922 300.505C148.459 300.881 145.458 302.968 143.939 308.282C143.818 308.709 143.741 309.706 144.359 311.544C144.967 313.351 146.127 315.606 147.939 318.28C151.564 323.627 157.371 330.033 164.973 337.038C180.138 351.014 201.827 366.805 225.637 380.581C249.352 394.302 276.949 388.115 295.904 369.739C314.775 351.445 324.739 321.246 312.438 287.651C302.07 259.339 294.632 240.001 288.59 226.661C288.348 226.276 288.161 225.863 288.031 225.43C286.689 222.509 285.419 219.886 284.195 217.53C280.873 211.133 278.041 206.939 275.4 204.104C274.892 203.752 274.462 203.318 274.125 202.825C271.86 200.711 269.704 199.534 267.451 198.729C265.173 197.916 264.329 198.185 264.189 198.247C264.089 198.361 263.609 199.005 263.545 201.071C263.392 206.006 265.873 214.522 271.488 224.483C278.074 236.165 284.132 248.556 288.764 258.202C291.096 263.059 293.04 267.161 294.541 270.212C295.291 271.735 295.897 272.929 296.361 273.78C296.595 274.207 296.766 274.496 296.879 274.675C296.897 274.704 296.913 274.728 296.926 274.747C298.613 276.711 298.529 279.673 296.668 281.534C294.715 283.486 291.548 283.486 289.596 281.534C289.053 280.991 288.647 280.368 288.428 280.022C288.154 279.589 287.87 279.092 287.586 278.573C287.016 277.529 286.334 276.182 285.568 274.628C284.039 271.52 282.043 267.305 279.75 262.53C275.132 252.912 269.191 240.772 262.777 229.395C256.836 218.856 253.314 208.411 253.551 200.762C253.668 196.965 254.775 192.685 258.379 190.106C262.06 187.472 266.632 187.818 270.814 189.311C272.799 190.02 274.656 190.906 276.426 192.014C284.766 174.579 291.468 166.845 301.186 163.374C305.368 161.88 309.94 161.535 313.621 164.169C317.225 166.748 318.332 171.027 318.449 174.825C318.686 182.474 315.164 192.919 309.223 203.458C306.025 209.129 302.943 214.996 300.082 220.649L298.381 224.05C301.3 230.594 304.501 238.393 308.125 247.696L310.064 244.608C334.863 204.876 345.715 181.356 348.387 168.575C349.819 161.723 348.505 159.876 348.227 159.61C347.961 159.357 346.522 158.553 342.027 159.762C339.361 160.48 336.616 158.9 335.898 156.233C335.181 153.567 336.762 150.824 339.428 150.106ZM307.811 172.309C307.669 172.247 306.825 171.979 304.549 172.792C298.397 174.989 293.01 179.934 284.203 198.979C287.115 202.469 289.944 206.935 292.932 212.659C295.334 207.991 297.88 203.213 300.512 198.546C306.128 188.584 308.608 180.069 308.455 175.134C308.391 173.068 307.911 172.424 307.811 172.309Z" fill="white"/>
<path d="M160.979 203.77C163.735 203.932 165.838 206.299 165.676 209.055C165.514 211.812 163.149 213.914 160.393 213.753C156.375 213.517 155.027 214.697 154.539 215.589C153.813 216.917 153.266 220.397 156.092 227.63C161.634 241.814 178.258 265.548 213.703 301.493C215.642 303.459 215.619 306.624 213.652 308.563C211.686 310.502 208.521 310.48 206.582 308.514C171.027 272.458 153.115 247.492 146.775 231.268C143.662 223.299 142.835 216.147 145.768 210.788C148.939 204.992 155.19 203.43 160.979 203.77Z" fill="white"/>
<path d="M411.022 177.833C416.81 177.493 423.061 179.054 426.232 184.85C429.165 190.21 428.338 197.362 425.225 205.331C418.885 221.555 400.973 246.52 365.418 282.577C363.479 284.543 360.314 284.564 358.348 282.626C356.382 280.687 356.358 277.522 358.297 275.555C393.742 239.61 410.366 215.877 415.908 201.692C418.734 194.459 418.187 190.979 417.461 189.651C416.973 188.76 415.625 187.579 411.607 187.815C408.851 187.977 406.487 185.874 406.324 183.118C406.162 180.361 408.265 177.995 411.022 177.833Z" fill="white"/>
<path d="M174.834 177.897C178.675 172.62 184.987 171.65 190.717 172.489C193.449 172.889 195.339 175.429 194.939 178.161C194.539 180.893 192 182.783 189.268 182.384C185.279 181.8 183.624 182.815 182.92 183.782C181.989 185.061 181.001 188.422 182.873 195.794C186.563 210.321 200.119 235.466 231.074 274.909C232.778 277.081 232.4 280.224 230.229 281.928C228.056 283.633 224.912 283.254 223.207 281.083C192.163 241.527 177.426 214.969 173.182 198.255C171.087 190.007 171.22 182.863 174.834 177.897Z" fill="white"/>
<path d="M216.879 178.305C221.26 174.134 227.582 174.701 232.572 176.044C235.238 176.762 236.819 179.504 236.102 182.171C235.384 184.837 232.639 186.418 229.973 185.7C225.478 184.49 224.039 185.295 223.773 185.548C223.495 185.813 222.181 187.661 223.613 194.512C226.285 207.293 237.137 230.814 261.936 270.546L264.379 274.44L264.631 274.887C265.758 277.157 265.004 279.956 262.814 281.337C260.624 282.717 257.774 282.188 256.213 280.192L255.92 279.772L253.479 275.882C228.677 236.152 216.899 211.258 213.826 196.557C212.295 189.23 212.51 182.465 216.879 178.305Z" fill="white"/>
<path d="M381.283 146.551C387.013 145.713 393.325 146.682 397.166 151.96C400.78 156.925 400.913 164.07 398.818 172.317C394.574 189.031 379.837 215.59 348.793 255.145C347.088 257.317 343.944 257.696 341.772 255.991C339.6 254.286 339.222 251.143 340.926 248.971C371.881 209.529 385.437 184.383 389.127 169.856C390.999 162.485 390.011 159.124 389.08 157.844C388.376 156.878 386.722 155.862 382.732 156.446C380 156.846 377.461 154.956 377.061 152.223C376.661 149.491 378.551 146.952 381.283 146.551Z" fill="white"/>
<path d="M174.094 108.212C176.056 106.524 178.953 106.628 180.791 108.372L181.145 108.743L222.605 156.928L222.92 157.333C224.37 159.411 224.038 162.291 222.076 163.979C219.983 165.78 216.826 165.543 215.025 163.45L173.564 115.262L173.252 114.86C171.801 112.782 172.131 109.9 174.094 108.212Z" fill="white"/>
<path d="M300.064 78.5749C300.785 76.1463 303.24 74.6102 305.783 75.0905C308.327 75.5716 310.055 77.8996 309.838 80.4245L309.768 80.9304L297.955 143.393C297.442 146.106 294.826 147.89 292.113 147.378C289.569 146.897 287.843 144.567 288.061 142.042L288.129 141.536L299.943 79.0749L300.064 78.5749Z" fill="white"/>
<path d="M231.203 75.282C233.647 74.427 236.306 75.5805 237.381 77.8757L237.574 78.3484L258.574 138.348C259.486 140.954 258.113 143.807 255.508 144.719C253.064 145.575 250.405 144.421 249.33 142.126L249.137 141.653L228.137 81.653L227.992 81.1609C227.401 78.6969 228.76 76.1374 231.203 75.282Z" fill="white"/>
<path d="M143.353 431.701C143.353 431.375 143.23 431.089 142.985 430.843C142.74 430.598 142.454 430.476 142.127 430.476H128.891C127.788 430.476 126.828 430.067 126.011 429.25C125.194 428.433 124.785 427.473 124.785 426.37C124.785 425.267 125.194 424.307 126.011 423.49C126.828 422.632 127.788 422.203 128.891 422.203H166.025C167.169 422.203 168.15 422.612 168.967 423.429C169.784 424.246 170.192 425.226 170.192 426.37C170.192 427.514 169.784 428.494 168.967 429.311C168.15 430.088 167.169 430.476 166.025 430.476H152.851C152.524 430.476 152.238 430.598 151.993 430.843C151.748 431.089 151.625 431.375 151.625 431.701V477.231H143.353V431.701ZM200.716 469.694C204.964 469.694 208.743 468.53 212.052 466.201C215.361 463.832 217.751 460.911 219.222 457.438C220.243 454.946 220.754 452.373 220.754 449.717V449.656C220.754 445.816 219.814 442.405 217.935 439.422C216.056 436.399 213.666 434.03 210.765 432.314C207.701 430.517 204.351 429.618 200.716 429.618C196.875 429.618 193.444 430.557 190.421 432.437C187.398 434.316 185.049 436.706 183.374 439.606C181.576 442.67 180.678 446.02 180.678 449.656C180.678 453.496 181.597 456.928 183.435 459.951C185.314 462.974 187.704 465.343 190.605 467.059C193.709 468.815 197.08 469.694 200.716 469.694ZM189.624 423.735C193.097 422.183 196.814 421.407 200.777 421.407C204.78 421.407 208.498 422.183 211.93 423.735C215.402 425.288 218.343 427.269 220.754 429.679C223.205 432.13 225.186 435.072 226.698 438.503C228.25 441.935 229.026 445.652 229.026 449.656C229.026 453.659 228.25 457.377 226.698 460.808C225.186 464.24 223.205 467.181 220.754 469.633C218.343 472.084 215.402 474.065 211.93 475.577C208.498 477.129 204.78 477.905 200.777 477.905C196.814 477.905 193.097 477.129 189.624 475.577C186.193 474.024 183.251 472.043 180.8 469.633C178.39 467.181 176.409 464.24 174.856 460.808C173.345 457.377 172.589 453.659 172.589 449.656C172.589 445.652 173.345 441.935 174.856 438.503C176.409 435.072 178.39 432.13 180.8 429.679C183.251 427.228 186.193 425.247 189.624 423.735ZM234.427 428.392C234.427 426.636 235.06 425.124 236.327 423.858C237.593 422.591 239.105 421.958 240.861 421.958H258.877C263.82 422.203 268.008 424.123 271.439 427.718C274.871 431.313 276.587 435.603 276.587 440.587C276.587 445.53 274.871 449.799 271.439 453.394C268.008 456.989 263.82 458.929 258.877 459.215H249.257C248.113 459.215 247.132 458.807 246.315 457.99C245.498 457.173 245.09 456.213 245.09 455.11C245.09 453.966 245.498 452.985 246.315 452.168C247.132 451.351 248.113 450.943 249.257 450.943H258.571C261.267 450.779 263.555 449.697 265.434 447.695C267.354 445.693 268.314 443.324 268.314 440.587C268.314 437.85 267.354 435.48 265.434 433.478C263.555 431.477 261.267 430.394 258.571 430.231H243.925C243.599 430.231 243.313 430.353 243.067 430.598C242.822 430.803 242.7 431.089 242.7 431.456V476.986H234.427V428.392ZM280.656 428.392C280.656 426.636 281.29 425.124 282.556 423.858C283.822 422.591 285.334 421.958 287.091 421.958H305.106C310.049 422.203 314.237 424.123 317.668 427.718C321.1 431.313 322.816 435.603 322.816 440.587C322.816 445.53 321.1 449.799 317.668 453.394C314.237 456.989 310.049 458.929 305.106 459.215H295.486C294.342 459.215 293.361 458.807 292.544 457.99C291.727 457.173 291.319 456.213 291.319 455.11C291.319 453.966 291.727 452.985 292.544 452.168C293.361 451.351 294.342 450.943 295.486 450.943H304.8C307.496 450.779 309.784 449.697 311.663 447.695C313.583 445.693 314.543 443.324 314.543 440.587C314.543 437.85 313.583 435.48 311.663 433.478C309.784 431.477 307.496 430.394 304.8 430.231H290.154C289.828 430.231 289.542 430.353 289.297 430.598C289.051 430.803 288.929 431.089 288.929 431.456V476.986H280.656V428.392ZM326.885 476.986V421.958H335.158V476.986H326.885ZM342.655 428.392C342.655 426.636 343.288 425.124 344.555 423.858C345.821 422.591 347.333 421.958 349.089 421.958C350.274 421.958 351.336 422.244 352.276 422.816C353.256 423.347 354.012 424.042 354.543 424.899L378.258 462.157C378.421 462.443 378.646 462.545 378.932 462.463C379.218 462.34 379.361 462.136 379.361 461.85V421.958H387.633V470.49C387.633 472.247 387 473.759 385.734 475.025C384.467 476.332 382.956 476.986 381.199 476.986C380.014 476.986 378.952 476.7 378.013 476.128C377.073 475.556 376.317 474.841 375.745 473.983L352.031 436.726C351.867 436.481 351.643 436.399 351.357 436.481C351.071 436.563 350.928 436.747 350.928 437.033V476.986H342.655V428.392ZM421.459 453.394C420.683 452.577 420.295 451.596 420.295 450.452C420.295 449.309 420.683 448.328 421.459 447.511C422.276 446.694 423.256 446.286 424.4 446.286H441.068C442.579 446.286 443.866 446.837 444.928 447.94C446.031 449.002 446.583 450.289 446.583 451.801V475.27H438.31V468.836C436.513 471.246 433.898 473.248 430.467 474.841C427.076 476.434 423.481 477.231 419.682 477.231C415.842 477.231 412.287 476.455 409.019 474.902C405.751 473.391 402.953 471.41 400.624 468.958C398.255 466.507 396.355 463.607 394.925 460.257C393.496 456.907 392.781 453.251 392.781 449.288C392.781 445.489 393.496 441.935 394.925 438.626C396.396 435.276 398.296 432.396 400.624 429.986C402.953 427.534 405.751 425.553 409.019 424.042C412.287 422.489 415.842 421.713 419.682 421.713C426.586 421.713 432.489 423.858 437.391 428.147C439.475 429.904 441.252 431.946 442.722 434.275L436.166 439.361C433.837 435.398 430.528 432.661 426.238 431.15C424.073 430.374 421.888 429.986 419.682 429.986C414.534 429.986 410.143 431.865 406.507 435.623C402.871 439.341 401.053 443.896 401.053 449.288C401.053 453.006 401.911 456.356 403.627 459.338C405.383 462.32 407.61 464.649 410.306 466.324C413.166 468.08 416.291 468.958 419.682 468.958C424.053 468.958 427.852 467.57 431.079 464.792C434.348 461.973 436.513 458.562 437.575 454.558H424.4C423.256 454.558 422.276 454.17 421.459 453.394Z" fill="white"/>
</svg>
